/* XPM */
static char *_4ef9a73d1294e15eff116a58d81f690GLQhMiaRn0IfAksH[] = {
/* columns rows colors chars-per-pixel */
"64 64 2 1 ",
"  c black",
". c #5656D3",
/* pixels */
"................................................................",
"................................................................",
"................................................................",
" ........ ........ ........ ........ ........ ........ ........ ",
"   ....     ....     ....     ....     ....     ....     ....   ",
"                                                                ",
"                                                                ",
"                                                                ",
".....                                                      .....",
"     ..                                                   .     ",
"       .                                                 .      ",
"        .                                               .       ",
"         .                                             .        ",
"          .                                          ..         ",
"           ..                                      ..           ",
"             ...                                ...             ",
"                ......                    ......                ",
"                      ....................                      ",
".....                                                      .....",
"     ..                                                   .     ",
"       .                                                 .      ",
"        .                                               .       ",
"         .                                             .        ",
"          .                                          ..         ",
"           ..                                      ..           ",
"             ...                                ...             ",
"                ......                    ......                ",
"                      ....................                      ",
".....                                                      .....",
"     ..                                                   .     ",
"       .                                                 .      ",
"        .                                               .       ",
"         .                                             .        ",
"          .                                          ..         ",
"           ..                                      ..           ",
"             ...                                ...             ",
"                ......                    ......                ",
"                      ....................                      ",
".....                                                      .....",
"     ..                                                   .     ",
"       .                                                 .      ",
"        .                                               .       ",
"         .                                             .        ",
"          .                                          ..         ",
"           ..                                      ..           ",
"             ...                                ...             ",
"                ......                    ......                ",
"                      ....................                      ",
".....                                                      .....",
"     ..                                                   .     ",
"       .                                                 .      ",
"        .                                               .       ",
"         .                                             .        ",
"          .                                          ..         ",
"           ..                                      ..           ",
"             ...                                ...             ",
"                ......                    ......                ",
"                      ....................                      ",
"                                                                ",
"                                                                ",
"                                                                ",
"                                                                ",
"                                                                ",
"                                                                "
};
