/* XPM */
static char *_83eb4aca23e454ba611f57021113bd4BkKqjRgaDaHH2W13[] = {
/* columns rows colors chars-per-pixel */
"64 64 184 2 ",
"   c #000000",
".  c #0B0006",
"X  c #000C01",
"o  c #040309",
"O  c #0C000A",
"+  c #000A0B",
"@  c #001300",
"#  c #02160A",
"$  c #0C0311",
"%  c #0D0C12",
"&  c #17001B",
"*  c #1D091D",
"=  c #001D15",
"-  c #131219",
";  c #002400",
":  c #002900",
">  c #07250E",
",  c #003500",
"<  c #003800",
"1  c #00380D",
"2  c #033912",
"3  c #1C0625",
"4  c #141521",
"5  c #191C24",
"6  c #220A22",
"7  c #2F0028",
"8  c #270B29",
"9  c #2F112F",
"0  c #201F29",
"q  c #280030",
"w  c #2E0038",
"e  c #330D3E",
"r  c #2B1E36",
"t  c #341331",
"y  c #3B1539",
"u  c #1A2126",
"i  c #272727",
"p  c #22212C",
"a  c #213A2D",
"s  c #252532",
"d  c #272833",
"f  c #2A2935",
"g  c #2D2D39",
"h  c #372639",
"j  c #263A3B",
"k  c #2B393E",
"l  c #32313E",
"z  c #004502",
"x  c #004B01",
"c  c #00480A",
"v  c #005A00",
"b  c #034918",
"n  c #094C1C",
"m  c #00631D",
"M  c #00751C",
"N  c #1B4728",
"B  c #0B5621",
"V  c #1F5A31",
"C  c #20522B",
"Z  c #234F32",
"A  c #284B37",
"S  c #2B443C",
"D  c #28593A",
"F  c #0E6327",
"G  c #0F6629",
"H  c #106C2C",
"J  c #14702E",
"K  c #1D6D34",
"L  c #177834",
"P  c #256A37",
"I  c #32653C",
"U  c #2A743D",
"Y  c #3E0249",
"T  c #3C1748",
"R  c #3C1F49",
"E  c #372E43",
"W  c #3D244A",
"Q  c #3D2B4A",
"!  c #353442",
"~  c #393645",
"^  c #353B44",
"/  c #393A46",
"(  c #3C3349",
")  c #3C3B4A",
"_  c #4B1D4B",
"`  c #54184F",
"'  c #570254",
"]  c #581F52",
"[  c #492A4C",
"{  c #403E4E",
"}  c #4F2550",
"|  c #542654",
" . c #582356",
".. c #572857",
"X. c #582857",
"o. c #5C265C",
"O. c #5C2A5C",
"+. c #4D3353",
"@. c #62255D",
"#. c #681468",
"$. c #632A63",
"%. c #672965",
"&. c #6A2B66",
"*. c #6D2E6C",
"=. c #75256E",
"-. c #722E6C",
";. c #613765",
":. c #6C316C",
">. c #762377",
",. c #772F70",
"<. c #792C72",
"1. c #6F3070",
"2. c #753276",
"3. c #7E3176",
"4. c #7A357A",
"5. c #7F397F",
"6. c #394D49",
"7. c #375347",
"8. c #395349",
"9. c #2D6240",
"0. c #366449",
"q. c #356B49",
"w. c #2B7743",
"e. c #35714A",
"r. c #327D4A",
"t. c #4A524F",
"y. c #5B4F5F",
"u. c #754577",
"i. c #803277",
"p. c #83347C",
"a. c #00862E",
"s. c #078733",
"d. c #168136",
"f. c #198C3B",
"g. c #0B953A",
"h. c #12963B",
"j. c #1A913D",
"k. c #22803D",
"l. c #1D9E43",
"z. c #238E42",
"x. c #2E8A49",
"c. c #30844A",
"v. c #308B4B",
"b. c #259645",
"n. c #2D924A",
"m. c #2B9B4B",
"M. c #1BA646",
"N. c #1EA446",
"B. c #1EB64C",
"V. c #1FB94D",
"C. c #20A747",
"Z. c #26A64B",
"A. c #22AD4B",
"S. c #22B44D",
"D. c #22B94F",
"F. c #25BA51",
"G. c #873781",
"H. c #883782",
"J. c #853A85",
"K. c #8A3984",
"L. c #883488",
"P. c #8E3C8A",
"I. c #913E8E",
"U. c #933F91",
"Y. c #814582",
"T. c #8D418E",
"R. c #954194",
"E. c #984296",
"W. c #974398",
"Q. c #9C459C",
"!. c #A0469F",
"~. c #96749A",
"^. c #9F47A0",
"/. c #A147A1",
"(. c #A349A4",
"). c #A44AA5",
"_. c #A44AA6",
"`. c #A54AA6",
"'. c #A64BA8",
"]. c #A94CAA",
"[. c #AA4CAB",
"{. c #A857A9",
"}. c #B14FB1",
"|. c #A065A3",
/* pixels */
"$.$.$.$.%.$.`  .$.$.$.$.$.$.$.$.$.$.$.$.$.$.$.$.$.&.  H H H B   p 0   %.$.$.$.$.$.$.$.$.$.$.$.$.$.$.$.%. . .$.$.$.$.$.$.$.$.$.$.",
"(.(././.(.(.H.E.(.(.(.(././._._.(.(./.(.(./._././._.  A.S.A.f.- ) )   /.(.(._.^.(.(.(.(.(./.(.(./.(././.U.L././.(./.(.(.!._._./.",
"/._._.(.(.(.I.U.(.(.(.(./._./._.(.(.`./.(.(.'.I.        S.G 5 ! ) ) )   W._./._.(.(.(.(.(.(.(.(._./._./.U.P._./.(.(.(.(.(._.(./.",
"_._._./.(.(.H.U._._._._._._._./.(.(.(.`.(.(.2.v F.S.S.F.    :./.  W   }._._./._.(.(._._.(.(.(.].(.(.(._.U.P._._._._._.'._./._._.",
"p.p.(.(./.(.K.4.i.3.i.p.p.3.I.[.(.(.`.i.3.3.p.<.  F.F.  Q ( s , F.D.    <.R._./._.'.i.i.i.i.i.i._.(.(./.U.p.p.i.i.i.i.p.U.(._.(.",
"_./.(.(.(.(.(.(._._._._.p.H.p.H.p.p.p.p._.P.R.`._.    F.S.S.n.) R S.S.S.b @.p.p.p.p.p.(.I.I.(.(.(.(.(.(./._./._._./.G.H.p.p.p.p.",
"_._.(.(.(.(.(.(./._._._.p.Q.!.Q.Q.!.!.!._.H.R./._.  N.S.A.r.r.m.( 7.F.n T.E./.^.Q.Q.!.(.P.I.(.(.(./._.(._._.(.(._.(.p.R.Q.!.!.!.",
"(./.(.(.(.(.(.(./._./._.i./._./.(.(.(.(._.K.R._./.  d.S.d.Z U B.x.q s.] Q.(.(.(.(.(.(.!.P.I.(.(.(.(.(.(.(./.(.(.(._.p.Q._.(._./.",
"!.!.Q.Q.!.!.Q.!.!.^././.p.Q.Q.Q.Q.Q.(.(.(.K.I.Q.R.# & N.h y I N.M.3   p.Q.Q.Q._.Q.(.(.(.P.I.Q.!.!.!.!.!.!.!.!.!.Q./.H.U./.!.!.Q.",
"p.p.p.p.p.p.p.p.p.p.p.p.p.p.p.p.p.p._.(.(.K.p.<.  ) )   p.p.&.    )   G.p.p.p.p.p._.(.(.P.p.p.p.p.p.p.p.p.p.p.p.p.p.p.p.p.p.p.p.",
"_.(._.(._.p.!.(._._.(.(.(._._._.(._._._._.].>.$ R ) { j     &.(.  W   ].]._.(.(.(.(.(.(.(.(._._._._.(.p.R._.(.(.(.(.(._.(._._._.",
").`.(._._.p.Q.(./._.(.(.(.(.(._.(.(._.].    a.S.F.(   }.K./.J.< F.S.F.    2.(.(.(.(.(.(.(.(.(.(.(._._.H.R.(.(.(.(.(.(.(.(.(.(.(.",
"(.).).)._.p.!.(.(.(.(.(.(.(.(.(.(.(.].  F.S.S.l.  ( )   p.E.J.$ Y B.F.  Q._.(.(.(.(.(.(.(.(.(.(.!._.(.p.R.(.(.(.(.(.(.(.(.(.(.(.",
"T.!.(.(._.p.!.(.(.(.(.(.(.(.(.(.(.(.(./.: N.c.6.~ S.W / * ( E     {.; /./._.(.(.(.(.(.(.I.p.H.(._.(.`.K.R.(.(.(.(.(.(.(.(.(.(.(.",
"Q.).(.(.(.E.I.P.I.P.P.(.(._.(.(._._.P.I.*.I N Z m.S.m.3 g ~ ~ f   $.P._._./._.(.(.P.P.P.R.E.Q.(.).).).Q.I.I.P.I.P.(.(.(.(._.(.(.",
").).!.(.(.(.I.P.I.I.p.Q.E.E.E.E.E.U.I.I.P.*.%.y.f.f.g.#.g g ! ~ u = J.E.E.Q.E.Q.E.P.I.I.Q._._.(.).!.).).R.I.I.I.p.E.E.Q.E.E.E.E.",
"(.(.).(.(.(.(.(.(.(.p.p.p.K.p.H.H.p.(.(.(.(.(.R.9 9 * (.y 9 h ^ 6.6., p.p.H.H.p.p.(.(.(.(.(.(.(.(.(.(.(.(.(.(.).p.K.p.p.K.p.K.K.",
"(.(.).!.(.(.(.(.(.(._._.i._.(.(._._.(.(.(.(./._.'.].].  ^.(.J.2 S.S.S.  Q._._.(.(.(.(.(.(.(.(.(.(.(.(.(.).!.(.(.(.(.p.Q.(.(.(.(.",
"(.(.(.(.(.).(.(.(.(.(.(._.p.Q.(.(.(.(.(.(._._.].].      _.].L.. Y F.S.F.x 4.(.(.(.(.(.(.(./.(.(.(.(.!.).(.(.(.(.(.(.(.P.R.(.(.(.",
"(.(.(.(.(.!.(.(.(.(.(.(._.p.Q._.(.(.(.(.(._.*.    F.S.F.j X M A.          4.(.(.(.(.(.(.(.(.(._.(.(.(.).(.(.(.(.(.(.(.P.P.(.(.(.",
").`.).).(.(.(.(.(.(.(._._.p.W.(.(.(.(.(./.(._.R.    S.S.B.e.( !   _._._.P.R./.(.(.(.(.(.(.(.(._.(.(.).!.).).).(.(.(._.K.T.(.(.(.",
"H.K.H.H.K.K.K.K.H.P.K.p._.!./.(.(.(.(.(._.P.K.p.3.<.x n n z.Z.m.  P.K._.!./.(.(.(.(.(.(.I.P.H.K.H.H.K.K.K.p.K.K.K.K.(.Q.!.(.(.(.",
"R.R.R.R.p.p.T.R.R.U.U.R._._.(.(.(.(.(./.(.E.R.R.R.E.  g d K k.c.s ] E._.(./.(.(.(.(.(.(.E.U.U.U.R.R.p.i.T.R.R.R.R.R.(.(.(.(.(.(.",
").`.(.(.H.I.E.!.(.(.(.(.(.(.(.).(.(.(.(.(.(._._._.[.  0.q.C N ! ) X E.(.(.(.(.(.(.(.(./.(.(._.(.).).H.R.E.!.!.).(.(.(.(.(.(.(.(.",
"(.(.(.(.(.(.K.R./.(.(.(.(.(.(./.(.(.(./.(.(.(./._.].  F.S.A.f.% / )   _._._._.(.).(.(.(.(./.(.(.(.(.(.(.R.P.).`.!.(.(.(.(.(.(.(.",
"(.!.(.(.(.(.K.R./.(.(.(.(.(.(.(.(.(.(.(.(.(._.R.        S.G 4 k ) ) {   E._.(.(.).^.(.(.(.).(._.(.(.(.(.I.P././.(.(.(.(.(.(.(.(.",
"`.`.(.(.(.(.H.R.).`.`.).).).(.).(.(.(._._._.*.v F.S.S.F.    *._.  [   ]._.(.(.(.).).`.`.).(._._.(.(.(.(.I.P.`.`._.(._.'._.(.(.(.",
"i.p.(.(.(.`.K.p.p.i.p.3.p.p.E.`.(._._.3.p.p.p.<.  S.F.  ( ( s , D.D.    <.R.(.(.).).3.p.p.p.4.i.(.(.)./.I.p.i.p.i.p.p.i.I.(.(.(.",
"(.(.(.(.(.(.(.(./.)./.).p.p.p.G.p.p.p.p._.H.R.!._.;   S.A.A.n./ ~ B.A.A.N @.p.G.p.H.p./.P.P.(./.(.(.(.(.(./.(./.(.(.p.p.p.p.p.p.",
"(.(.(.(.(.(.(.(.).).).).p.W.E.Q.Q.Q.Q.E._.K.R.(._.  l.S.S.c.c.n.( q.S.F Y.R.Q.Q.W.Q.E.).P.R.(.(.(.(.(.(.(.(.(.(.(.`.H.R.Q.Q.Q.!.",
"(.(.(.(.(.(.(.(.(.).).`.p._.(.(._.(.(.(._.K.R._._.  j.S.f.D w.A.r.w h.` Q.(.(.(.).(.`./.P.I.(.(.(.(./.(.(.(.(.(.(.(.p.!.(.(.(.(.",
"!.!.(.!.!.!.(.!.Q./.Q.`.3.Q././././.(.(.(.K.I.!.Q.X . A.i 8 P A.A.O   p.Q.!.(.!./.`./.!.P.I././././././././././././.p.E.!.(.!.!.",
"p.p.i.p.p.p.p.p.p.p.p.p.p.p.p.p.p.i._.(._.J.p.<.  ) )   p.K.&.    )   p.p.p.p.p.i._._._.P.p.p.p.i.p.p.p.p.p.p.p.i.p.p.i.p.p.i.p.",
"(.'._._._.p.Q._.(.(.(._.(._.(._.(._.(.(.].].>.o R ) ) k     %._.  [   ].].]._._.(.(./._.(.(._.(._._._.H.E._.(._._._._.(._._._._.",
"(.(.(.(._.p.Q.(.(.(.(.(.!._.(.(.(.(._.].    a.S.D.(   }.K.!.J.< F.B.F.    2./._.(.(.(.(.(.(.(.(.(.(.(.H.R.(.(.(.(.(.(.(.(.(.(.(.",
"(.(.(._._.p.!.(.(.(.(.(.(.(.(.(.(.(.].  S.S.S.N.  ) )   p.E.J.% T B.S.  Q.(.(._.(.(.(.(.(.(.(.(.(._._.H.R.(.(.(.(.(.(.(.(.(.(.(.",
"T.(.(.(._.p.Q._.(._.(.(._.(.(._.(.(.(.E.c C.c.8.! A.W ! t +.[     |.z E.!.(.(.(.(.(.(.(.I.K.P.(.(.(.(.H.R.(._.(.(.(.(.(.(.(.(.(.",
"Q.(.(.(._.R.U.U.I.I.I.(._._.!._.(.(.U.R.@.U C A x.S.x.8 f ~ ! d   2.5._.(.(.(.(._.I.U.I.U.U.E.(.(.(.(.E.R.I.I.I.T._.(.(.(.(.(.(.",
"(.(.(.(._./.P.P.K.P.p.Q.Q.Q.Q.Q.Q.Q.K.P.P.o.| t.l.l.M.' l l ! ~ 4 @ R.Q.Q.Q.Q.Q.Q.K.K.P.Q._.(./.(.(.(.(.R.P.P.P.p.!.!.Q.Q.Q.Q.Q.",
"(.(.(.(._./._.(.(._.p.p.p.p.p.H.p.p.(.(.(._./.U.o     _.6 o p / ) )   G.G.p.p.p.p._.(.(.(._.(.(.!._.(.(.(.(.!._.p.p.p.p.p.p.p.p.",
"(.(.(.(.(.(.(.(.(./._._.i._.'._._._.(.(.(.(.(.(._.].}.  _._.J.2 D.S.S.  Q._._.(.(.(.(.(.(./._.(.(.(.!.(.(.(.(.(.(.(.p.Q._.(.(.(.",
"(.(.(.(.(.(.(.(.(.(.(.(._.p.E._.(.(.(.(.(.(._._.].      _._.L.. Y D.S.F.x 4.(.(.(.(.(.(.(.(.(.(.(.(.(.(.(.(.(.(.(.(._.K.I._.(.(.",
"(.(.(.(.!.(.(.(.(.(.(.(.(.H.E./.(./.(.(.(.(.*.    F.S.S.S @ M S.          4.(./.(./.(.(.(.(.(.(.(.(.(.(.(.(.(.(.(.(.(.K.I.(.(.(.",
"(.!.(.(.(.(.(.(.(.(.(._.(.p.E._.(.(.(.(.(.(./.R.    S.S.A.q.) ^   (.(.(.K.R.(.(.(.(.(.(.(.(.(./.(.(.(.(.(.(.(.!.(.(.(.I.I.(.(.(.",
"I.K.I.I.I.P.P.P.P.P.P.H._.E.^.(.(.(.(.(.(.P.P.K.-.=.m G G z.m.b.  I.P._.Q.Q.(.(.(.(./._.U.I.I.P.P.P.P.P.P.P.P.P.P.P.(.Q.!.(.(.(.",
"I.I.I.I.i.p.I.I.I.I.I.I._.(.(.(.(.(.(.(.(.R.I.I.I.U.  p p L z.x.5 %.I._.(._.(.(.(.(.(.(.U.I.I.I.I.I.p.p.P.I.I.I.I.I.(.(.(.(.(.(.",
"(.(.(._.p.p.Q.(.(.(.(.(._.(.(.(.(.^.(.(.(.(.(.(._.].  8.7.N a ~ )   (.(.(.(.(.(././.(.(._.(.(./.(._.p.p.E.(.(.(.(.(.(.(.(.(.(.!.",
"(.(.(.(._.p.Q.(.(.(.(.(.(.(.(.(.(.3.(.(.(.(.(.(._.}.  F.A.S.j.o / )   ].(.(.(.(.p.(.(.(.(.(.(.(.(.(.(.K.U.(.(.(.(.!.(.(.(.(.(.p.",
"(.(.(.(.'.p.!.(.'.`.(.(.'.(.(.'._.p._.(.(.(._.U.        S.F 3 ^ ) / {   Q.`.`.`.i.`./.).(.(.(.(.(.(.(.K.E.`.`.`.`.`.`.`.`.`.`.p.",
"(.(.(.(.(.i.i.i.i.p.i.p.i.p.p.i.i.i._._.(.(.-.v F.F.F.F.     .p.  [   P.3.3.p.3.i.'.`.`.(.(.(.).(._.'.p.i.i.i.i.i.p.i.i.p.3.i.p.",
"p.p.p.i.(.'.(._.(.(.`.i.(.(.(.(._._.i.p.p.p.p.2.  S.S.  ~ ) g , D.D.    W.`.(.`.'.i.p.p.p.p.p.p.p.i._.'.`.).(._.`.i.(.(.).(.`.(.",
"P.!.!.!.(.(._.!.(.(.`.i._.(.(.(._._.!.Q.Q.K.p.K.Q.z 2 A.Z.Z.x.^ 6.S.N.S.S J.(.(.`.!./.Q.P.p.K./.!.!.(.(.(.`.!.(.`.p.(.(.(.(.(.(.",
"I.(.(.(.(.(.(.(.(.(.).R.R.).).).(.(.(.(.(.K.p.P._.  f.S.A.x.c.v.( r.S.J u.R.(.(.).(.(.(.P.p.p./.(.(.(.(.(.(.(.(.`.W.R.Q.(.(.(.(.",
"R.(.(.(.(.(.(.(.(.(.(.).i./.)./.(.(.(.(.(.K.H.T._.  N.S.l.9.w.A.q.e h._ W.(.(.(.(.(.(.(.K.p.R./.(.(.(.(.(.(.(.(.(.`.p.Q.(.(.(.(.",
"!.(.(.(.!._.(.(.(.(.(.`.i.(.!.)._.(.(.(.(.K.R.(._.    S.> o J S.S.    p.Q.(.(.(.(.(.(.(.P.R.(.(.(.(.(.(.!.(.(.!.(.(.p.Q.`./.(.(.",
"_.'._.[.X.X.X.X.....].`.`.$.X.X.X.o._._._.K.E.W.  ) )   $.&._     )   G.%.X.......].).).P.R.`.'.'.'.@.X.X.X.X.} ].`.p.&.X.X.X.O.",
"| | | | @.`.`.`.`.`.3.3.3.p.Q.`.(.$.} p.p.K.'   W ) ) ^     &._.  [   K.H.E._._.$.} p.3.p.:...| | | ;.!._._._.].3.3.p.p.T.`.].O.",
"{.(.].]...`.(.(.(.(.`.(.`.`.`.(.^.X.'.].    s.S.D.(   &._.].J.< D.B.F.    4._._.X.].(.`.`.`.`.`._.].O.Q._.(.(.(.`.`.`.(.(.(._.O.",
"/._.(.`...`.(.(.(.(.(.(.(.(.(.(.^.O.[.  S.A.A.l.# / )   _.(.J.% Q B.S.  R.(._./...`.(._./.(.(.(./.`.O.Q./._.(.(.(.(.(.(.(.(._.O.",
"(._.`.`...(.(.(.(.(.(.(.(.(.(.(.^.O.'.T.m C.n.0.l Z.Q g ..;.| o + ~.v R.(.(._._.X._.(._.`.(.(.(._.`.O.Q.(._.(.(.(.(.(.(.(.(._.@.",
"(._.(._...).(.W.T.T.T.T.T.T.T.R./.p.).'.*.c.P A r.S.r.r p ! l p   J.9 T.P.T.T.R.&.`._._.(.(.(.(.(._.O.I.Q.E.T.T.T.T.T.T.T.T.E.:.",
"Q.Q.Q.(.O.`.(.J.$.&.$.@.:.:.:.4._.Q.Q.Q.Q._ 6 C C.C.A.7 ! ~ ~ / - X O.&.&.$.:.p.p._.Q.Q.Q.^.Q.Q.Q.(.%.p.p.p.&.$.@.@.%.:.$.:.p.p.",
";.O.O.p.H.p.p.p.p.p.;.X.`.(.P.i.p.p.p.O.O.$.@...      K.o   u ) Q Q   H.p.p.p.p.G.p.O.O.$.$.O.;.O.K.p.p.p.p.p.p.O.;.p.p.p.p.p.p.",
"-.p.J.p.p.p.p.p.p.p.@.O.`.(.(.)._.'.p.p.p.:.%.*.p.p.K.  p.p.&.1 S.B.F.  3.p.G.p.p.p.p.p.:.$.&.p.p.p.p.p.p.p.p.J.O.@.p.p.K.p.p.p."
};
