/* XPM */
static char *e1442cad2c96473e9e2774080ff06e5bKAj66BKQAM2aeDJU[] = {
/* columns rows colors chars-per-pixel */
"64 64 32 1 ",
"  c #1C1547",
". c #17174D",
"X c #1C1649",
"o c #17194F",
"O c #1D1A4D",
"+ c #1C1B51",
"@ c #1F1D52",
"# c #1A1C54",
"$ c #1F1F56",
"% c #1A1F58",
"& c #211D4F",
"* c #201A50",
"= c #201F54",
"- c #211F56",
"; c #1E2055",
": c #1E2056",
"> c #1B205B",
", c #1E235B",
"< c #1C245B",
"1 c #1D245B",
"2 c #1B235D",
"3 c #1B235F",
"4 c #1D235C",
"5 c #1B245E",
"6 c #1B245F",
"7 c #1E245C",
"8 c #1C255E",
"9 c #212157",
"0 c #232157",
"q c #222158",
"w c #20235A",
"e c #20235B",
/* pixels */
",,,444444444442,,,,,,,,,,,,,,2,4444444444,,,,,,,,,,,444444444444",
"4444444444444444444444444444444444444444444444444444444444444444",
"444444444444444444444444444444444,444444444444444444444444444444",
"4444444444444,24444444444444,24442444444444444444444444444444444",
"4444447777777444,4444444444444,747777774444444444444444444774e77",
"44442qXXXXXXX>52544444474444247OXXXXXXo5,224444444444457qXXXXXXX",
"424++O$:::$:$@++#,5422752,42,OO$$:::::$+O=#42444274424$+@$::::4-",
",$-+O#5427224@X&X::9:4:::,$,-OO>5444444OOXX,:4:4::,:,$+X+5424442",
"XXX7544444444574XXXX XX XXXX.744444444274-XXXXXXXX XXX>724444444",
"744444444444444477777777777474444444444444777777<77774,244444444",
"4444444444444444444474447444444444444444444444447744444444444444",
"4444444444444444444474444444444444444444444444444444444444444444",
"44447444444444444444444444444444447777444444444444444444444<4444",
"44447<47777744444444444444444444477<74744444444444444444477<4774",
"44447:XXXXXXX%23244444444444447XXXXXXX.74424444444444477qXXXXXXX",
"457OO#9::9:qq*O++25424242445,O+$q:9:::-O+O+6242442442,=O.,::9:q4",
"::9OO#5442422@OOX9:9::9:,:9:9O+2542442,OOXX::q:::::q:9@O+5424242",
"XX.4744444444444XXXXXXXXXXXX.774444444427:XXXXXXXXXXXX>7,5444444",
"7474244444444444477777777774744444444444777777477777474424444444",
"74444444444,4444444477774444444444444444775777445777444444444444",
"42774443444,444444445444444444,,24244244244444447444444444754442",
"425744q4,04,,,44444444444444424,4,,,7q,44444444444442244,,4q,,,,",
"4777q9XXXXXXX-4774444444444444,OXX  XX.77774444444447544qXXXXX  ",
"457XX.<7<77q<+X X454444444449XX,,4q,q<qXXX.54444444457OX.7q<7q4,",
"OO+-,,>,24424,$qXOOOOOOOO&XO+4:4444444,::= OOOOOOOOOOO$q,>444444",
"O++524,,,44,4224+O@O++O+O++*#544444444445:O@OO@OO+O+++222,444444",
"42744444444444424222244244444444444444444764,5224442444444444444",
"4444444444444447444,44444444444444444444444477444444444444444444",
"44444444442444>74444444444444244444424444444444444444444444,4244",
"44444424222724<54444444444444444224545,4444444444444444442442444",
"44444q,,,:q:q257244444444444444q:,:q::,,74444444444444444$,,9,,,",
"42444q X  XXX$77744444444444477OX XXX .77q44444444444444qX      ",
"444 X.447774qOXXX55747574442qXX$,77777qX  .44477744477@ X7477777",
"OOX,9,44444444qq XOXOO.X.OOO.444444444<q,& OOO.OOOO.X.:7,4444444",
"$+#4424444444424@O@#@O+@@@@+#744444444542,@@++@O@@@OO@>524444444",
"244444444444444475422742242724444444444442224442224745<4,,444444",
"444444444444444474444444,44444444444444444444444>744444444444444",
"44444444444444445<44444444444444444444444444444444444444444,4444",
"4444,,4444244444444444444444444724722424444444444444444424424424",
"4444,,,:,::44444444444444444434q:,:9:$,44444444444444442,:9,::,:",
"44444-XXXXXXX,4-747574447444444XXXXXX X75q77244444444444qXXXXXXX",
"427XX+244477,&XXX,7<75447737qXX,477744qXXX.57744444,44OX.57777,7",
"OXX4q444444244-q XX OX.X.XXO+4,4447444,4q&XXOX.XOXX.XO$4q3444477",
"@@@2744444444424#=$@@@@$@@@@#54,444444455,@$@@@$@-@@@-2744444447",
"4344444444442442424254242434244444444444,22424242424434444444444",
"44444444444444444444<4444444444744444444444444444444444444444444",
"44444743444473444444444444444445474427<4444444444444444442444425",
"24426qO+OO+O+454244444444444454@OO+O+O+74244444444424446eOOO+OO+",
"444::9OOO+O+O$:::44772774444<9:OOOOOOO.4::,744474772,499-.OOO+OO",
"47qXXo7244457OXXX,4q74ww7,q<9XX,527275qXXXX7777q<q,4<,OX.7447227",
"XXX777444444437qXXXXXXXX XXX.774744475477-XXXXXXXXXX X>777444444",
"4q77244444444577,4qeq7q<q,,,,24444444,444<q,<q,4q<<q,,,477444444",
"42444,444444444434432424542424<444444444444224244442454444444444",
"4444<,4444444444244444444444447444444447444444444444444444444444",
"4444444444444444444444444444444444444444444444444444444444444444",
"4444424444443444444444444444444434444444444444444444444444434444",
"444729OO+=OOX%57444444444447<>,$OOOOOO+24444444444444442eOOOOOOO",
"442-:-O++O+++$:$$44444444446,$$+O+@+OO.::q>44444444424$,-+++OO=+",
"ee,XXo72,4447+XXX,,,4,q,4q4qqX.4743476qXXX.e,,,qeeq44,+X.44424,,",
"XX.447444444777qXXXXXXXXXXXX.744444477777-XXXXX  X   .$44444444,",
"q4e444444444242,4q7,,4q444,q44444444444444q444q44eq44q4244444444",
"2244444444444444247247524442444444444444445444224244244444444444",
"4444444444444444444444444444444444444444444444444444444444444444",
"4444444444444444444444444444444444444444444444444444444444444444"
};
