/* XPM */
static char *_603_22bc755e9a221f3398ae3c4dc74c1fa7bda35cd94202d862fc12b27543287e1f[] = {
/* columns rows colors chars-per-pixel */
"52 64 141 2 ",
"   c #000100",
".  c #040B02",
"X  c #03050A",
"o  c #0F040F",
"O  c #030A0A",
"+  c #0B0B0B",
"@  c #071105",
"#  c #041A00",
"$  c #0F120E",
"%  c #030614",
"&  c #04071A",
"*  c #05091C",
"=  c #080B1B",
"-  c #150F15",
";  c #04191A",
":  c #05141A",
">  c #131313",
",  c #1B1B1B",
"<  c #052000",
"1  c #062F00",
"2  c #073304",
"3  c #0E3C07",
"4  c #2E381E",
"5  c #050A23",
"6  c #050A2A",
"7  c #071629",
"8  c #0D122D",
"9  c #121520",
"0  c #060C37",
"q  c #06113B",
"w  c #220722",
"e  c #231223",
"r  c #300A30",
"t  c #3C1F30",
"y  c #3B1C3B",
"u  c #09292A",
"i  c #082333",
"p  c #09253A",
"a  c #1A203C",
"s  c #07383B",
"d  c #242424",
"f  c #2C2C2C",
"g  c #293227",
"h  c #353535",
"j  c #3C3C3C",
"k  c #0A4B02",
"l  c #17410F",
"z  c #085100",
"x  c #1B4A12",
"c  c #060D44",
"v  c #070E4C",
"b  c #131C4D",
"n  c #070F51",
"m  c #07115B",
"M  c #141E56",
"N  c #2A2F41",
"B  c #2E344A",
"V  c #08146D",
"C  c #081473",
"Z  c #09167A",
"A  c #0B297A",
"S  c #4E0D4E",
"D  c #7A2370",
"F  c #074144",
"G  c #084548",
"H  c #084E51",
"J  c #0B7277",
"K  c #434343",
"L  c #4C4C4C",
"P  c #525252",
"I  c #5B5B5B",
"U  c #595B61",
"Y  c #646464",
"T  c #6B6B6B",
"R  c #717171",
"E  c #7C7C7C",
"W  c #091780",
"Q  c #0A198E",
"!  c #0A1A92",
"~  c #0B2981",
"^  c #0B208D",
"/  c #0C1FAC",
"(  c #0B1DA4",
")  c #0C22B7",
"_  c #0D28B3",
"`  c #0D23BA",
"'  c #0E26C6",
"]  c #0E2ACA",
"[  c #0F2CD4",
"{  c #1033D6",
"}  c #1134E5",
"|  c #1236E9",
" . c #123AED",
".. c #143EF1",
"X. c #1443F6",
"o. c #1647F8",
"O. c #174AFA",
"+. c #184EFD",
"@. c #1953FF",
"#. c #A41FA1",
"$. c #A81AA8",
"%. c #D528D4",
"&. c #D829D7",
"*. c #E229E2",
"=. c #ED2FED",
"-. c #F73AF7",
";. c #FA3DFA",
":. c #FD42FD",
">. c #0C8588",
",. c #0D979E",
"<. c #14D7DC",
"1. c #15DBDF",
"2. c #17E5E9",
"3. c #18EBEE",
"4. c #1BF3F6",
"5. c #1DF6F8",
"6. c #1FFAFC",
"7. c #21FCFE",
"8. c #818181",
"9. c #8E8E8E",
"0. c #949494",
"q. c #9B9B9B",
"w. c #A1A1A1",
"e. c #A6A9A4",
"r. c #ACACAC",
"t. c #B2B2B2",
"y. c #BBBBBB",
"u. c #C0C7BE",
"i. c gray77",
"p. c #CECECE",
"a. c #D6D6D6",
"s. c #D6DAD4",
"d. c #D8DBD7",
"f. c #DCDCDC",
"g. c #DFE0DE",
"h. c #E5E5E5",
"j. c #ECECEC",
"k. c #EFF0EF",
"l. c #F3F3F3",
"z. c #FEFEFE",
"x. c None",
/* pixels */
"x.x.x.x.x.x.x.x.x.x.x.x.x.x.x.x.x.x.x.x.x.x.x.x.x.x.x.x.x.x.x.x.x.x.x.x.x.x.x.x.x.x.x.x.x.x.x.x.x.x.x.x.",
"x.x.x.x.x.x.x.x.x.x.x.x.x.x.x.x.x.x.x.x.x.x.x.x.x.x.x.x.x.x.x.x.x.x.x.x.x.x.x.x.x.x.x.x.x.x.x.x.x.x.x.x.",
"x.x.x.x.x.x.x.x.x.x.x.x.x.x.x.x.x.x.x.x.x.x.x.x.x.x.x.x.x.x.x.x.x.x.x.x.x.x.x.x.x.x.x.x.x.x.x.x.x.x.x.x.",
"x.x.x.x.x.x.x.x.x.x.x.x.x.x.x.x.x.x.x.x.x.x.x.x.x.x.x.x.x.x.x.x.x.x.x.x.x.x.x.x.x.x.x.x.x.x.x.x.x.x.x.x.",
"x.x.x.x.x.x.x.x.x.x.x.x.x.x.x.x.x.x.x.x.x.                    x.x.x.x.x.x.x.x.x.x.x.x.x.x.x.x.x.x.x.x.x.",
"x.x.x.x.x.x.x.x.x.x.x.x.x.x.x.x.x.        z.z.z.z.z.z.z.z.z.z.        x.x.x.x.x.x.x.x.x.x.x.x.x.x.x.x.x.",
"x.x.x.x.x.x.x.x.x.x.x.x.x.x.x.x.  8.p.z.z.z.z.z.z.z.z.z.z.z.z.z.z.j.    x.x.x.x.x.x.x.x.x.x.x.x.x.x.x.x.",
"x.x.x.x.x.x.x.x.x.x.x.x.x.x.x.  u.z.z.z.z.z.z.z.z.z.z.z.z.z.z.z.z.z.z.f.  x.x.x.x.x.x.x.x.x.x.x.x.x.x.x.",
"x.x.x.x.x.x.x.x.x.x.x.x.x.x.  s.z.z.z.z.z.z.z.z.z.z.z.z.z.z.z.z.z.z.z.z.k.  x.x.x.x.x.x.x.x.x.x.x.x.x.x.",
"x.x.x.x.x.x.x.x.x.x.x.x.x.  r.z.z.z.z.z.z.z.z.z.z.z.z.z.z.z.z.z.z.z.z.z.z.h.  x.x.x.x.x.x.x.x.x.x.x.x.x.",
"x.x.x.x.x.x.x.x.x.x.x.x.x.  f.z.z.z.z.z.z.z.z.z.z.z.z.z.z.z.z.z.z.z.z.z.z.l.  x.x.x.x.x.x.x.x.x.x.x.x.x.",
"x.x.x.x.x.x.x.x.x.x.x.x.x.  z.z.z.z.z.z.z.z.z.z.z.z.z.z.z.z.z.z.z.z.z.z.z.z.r.  x.x.x.x.x.x.x.x.x.x.x.x.",
"x.x.x.x.x.x.x.x.x.x.x.x.x.  z.z.z.l.h h h h R z.z.z.z.z.z.e.h h h h a.z.z.z.r.  x.x.x.x.x.x.x.x.x.x.x.x.",
"x.x.x.x.x.x.x.x.x.x.x.x.x.  z.z.$ X           T z.z.z.z.y.  X 3.5.,.X + l.z.r.  x.x.x.x.x.x.x.x.x.x.x.x.",
"x.x.x.x.x.x.x.x.x.x.x.x.x.  z.f               P z.z.z.z.r.O <.7.3.7.J X $ z.r.  x.x.x.x.x.x.x.x.x.x.x.x.",
"x.x.x.x.x.x.x.x.x.x.x.x.x.  z.,               P z.z.z.z.r.G 5.6.>.7.1.O X z.r.  x.x.x.x.x.x.x.x.x.x.x.x.",
"x.x.x.x.x.x.x.x.x.x.x.x.x.  j.r.            + p.z.r.9.z.j.> H 7.7.2.:   8.l.  x.x.x.x.x.x.x.x.x.x.x.x.x.",
"x.x.x.x.x.x.x.x.x.x.x.x.x.  r.z.i.8.        , z.z., X z.z.P   s F ; P y.z.h.  x.x.x.x.x.x.x.x.x.x.x.x.x.",
"x.x.x.x.x.x.x.x.x.x.x.x.x.x.  j.z.z.h.d.a.+ j.z.9.    L z.l., i.a.h.z.z.z.  x.x.x.x.x.x.x.x.x.x.x.x.x.x.",
"x.x.x.x.x.x.x.x.x.x.x.x.x.x.  j.z.z.l.w.h l.z.z.P     , z.z.l.L R l.l.z.z.  x.x.x.x.x.x.x.x.x.x.x.x.x.x.",
"x.x.x.x.x.x.x.x.x.x.x.x.x.  e.z.z.j.d l.z.z.z.z.r.K K E z.z.z.z.z.t.P z.z.f.  x.x.x.x.x.x.x.x.x.x.x.x.x.",
"x.x.x.x.x.x.x.x.x.x.x.x.x.  r.z.9.P > E 8.z.z.z.z.z.z.z.z.z.z.z.8.h   P z.h.  x.x.x.x.x.x.x.x.x.x.x.x.x.",
"x.x.x.x.x.x.x.x.x.x.x.x.x.  r.z.i.8.P P 8.L K K K K K K K K K L 8.  P y.z.h.  x.x.x.x.x.x.x.x.x.x.x.x.x.",
"x.x.x.x.x.x.x.x.x.x.x.x.x.x.  j.z.z.w.+ f.h.t.h h.$ a.h.E R h.+ h.h l.z.z.  x.x.x.x.x.x.x.x.x.x.x.x.x.x.",
"x.x.x.x.x.x.x.x.x.x.x.x.x.x.  p.z.z.z.I > k.p.P z., l.z.r.r.l.X K z.z.z.j.X @ @ . x.x.x.x.x.x.x.x.x.x.x.",
"x.x.x.x.x.x.x.x.x.x.x.  $ $ $ > a.z.z.z.z.j , f f.> p.f.T T P h z.z.z.j.d q.q.R 8 : x.x.x.x.x.x.x.x.x.x.",
"x.x.x.x.x.x.x.x.x.x.  f h I w.w.h 9.a.z.z.z.l.R R R R R R R l.z.z.j.0.h 0.w.R M X.Q   x.x.x.x.x.x.x.x.x.",
"x.x.x.x.x.x.x.x.x.  ~ ` Z X , 8.q.L K K K z.z.z.z.z.z.z.z.z.z.P K K L 9.w.E b X.@._   x.x.x.x.x.x.x.x.x.",
"x.x.x.x.x.x.x.x.x.A O.@.O.} } 8 9.q.9.T T d , 9 , , , , , , , Y T 8.w.q.9.8 X.@.@.o.  x.x.x.x.x.x.x.x.x.",
"x.x.x.x.x.x.x.x.i o.@.@.@.@.@.o.* - 9.w.w.E > w.+ X + f 0.h 9.q.w.q.8.> = o.@.o.@.@.{   x.x.x.x.x.x.x.x.",
"x.x.x.x.x.x.x.x.  [ @.@.O...@.@.+. .a Y Y P > j.z.z.l.l.T d Y Y Y B 5 5 o.@.X.V  .@.@.]   x.x.x.x.x.x.x.",
"x.x.x.x.x.x.x.  ' @.@.@.} n @.@.@.@./ $ d     , j.z.z.h.        V ' @.@.@.@./ / @.@.@.@.n x.x.x.x.x.x.x.",
"x.x.x.x.x.x.  ) @.@.@.@.} n @.@.@.@.( K w.X     f R R K     , X @.@.@.@.@.@./ / @.@.@.@.[   x.x.x.x.x.x.",
"x.x.x.x.x.x.O @.@.@.@.@.} n @.@.@.@./ K q.    f f.f.a.      Y X @.@.@.@.@.| X / @.@.@.@.@.| 2 x.x.x.x.x.",
"x.x.x.x.x.2  .@.@.@.@.@.} c O.X.X.X.! X +     P z.z.z.p.    . X @.@.@.o. .X X / @.@.@.@.@.@.. x.x.x.x.x.",
"x.x.x.x.x.# O.@.@.@.@.@.}   Z v 5 5 * N 9.+   P z.z.z.h.  + R X @.o.} % & v ( / @.@.@.@.@.@.5 x.x.x.x.x.",
"x.x.x.x.x.# O.@.@.@.@.@.} X c ..@.@.@.v T K   P z.z.z.h.  , L X o.Q c c O.@./ n O.@.@.@.@.@.O.# x.x.x.x.",
"x.x.x.x.x.# O.@.@.@.@.+.C [ @.@.@.@.@.n , f   P z.z.z.h.  > h X } n @.@.@.@. .& } @.@.@.@.@.O.# x.x.x.x.",
"x.x.x.x.x.x.7 O.@.@.@.O.& @.@.@.@.@.@.n j 8.  P z.z.z.h.  j q.X } m @.@.@.@.@.n } @.@.@.@.@.X.< x.x.x.x.",
"x.x.x.x.x.x.x.7 O.@.@.O.& @.@.@.@.@.@.V U +   P z.z.z.h.  X X } 6 o.@.@.@.@.@.n } @.@.@.@.X.  x.x.x.x.x.",
"x.x.x.x.x.x.x.x.p } O.O.& @.@.@.@.@.@.+.& E   P z.z.z.h.  j + ] v @.@.@.@.@.@.v } @.@.@...  x.x.x.x.x.x.",
"x.x.x.x.x.x.x.x.x.. } O.& @.@.@.@.@.@.@.& E   d y.y.y.8.  K + v @.@.@.@.@.@...5 } @.@...  x.x.x.x.x.x.x.",
"x.x.x.x.x.x.x.x.x.z } O.X Z | @.@.@.@.@.& d               > X O.@.@.@.@.@.X.0   } Q W   x.x.x.x.x.x.x.x.",
"x.x.x.x.x.x.x.x.x.x.u q     & ..O.+.+.+.%                     0 c c c c c 6     u     x.x.x.x.x.x.x.x.x.",
"x.x.x.x.x.x.x.x.x.x.x.x.x.    % & & & & X                                     x.x.x.x.x.x.x.x.x.x.x.x.x.",
"x.x.x.x.x.x.x.x.x.x.x.x.x..                                     + X         X x.x.x.x.x.x.x.x.x.x.x.x.x.",
"x.x.x.x.x.x.x.x.x.x.x.x.x.x.X   > >                           . w.K       + K x.x.x.x.x.x.x.x.x.x.x.x.x.",
"x.x.x.x.x.x.x.x.x.x.x.x.x.f +   9.T                             w.K       X f   x.x.x.x.x.x.x.x.x.x.x.x.",
"x.x.x.x.x.x.x.x.x.x.x.x.+ K   f 0.+               f           X w.K         , , x.x.x.x.x.x.x.x.x.x.x.x.",
"x.x.x.x.x.x.x.x.x.x.x.x.+ K   T 9.              f > P           w.L         , , x.x.x.x.x.x.x.x.x.x.x.x.",
"x.x.x.x.x.x.x.x.x.x.x.x.+ K   T 9.              K + E           w.q.,       > d x.x.x.x.x.x.x.x.x.x.x.x.",
"x.x.x.x.x.x.x.x.x.x.x.x., , + E L               K + K $       X w.w.,         K + x.x.x.x.x.x.x.x.x.x.x.",
"x.x.x.x.x.x.x.x.x.x.x.. T   K w..             + R +   T         w.w.,         K + x.x.x.x.x.x.x.x.x.x.x.",
"x.x.x.x.x.x.x.x.x.x.x.. T   K w.              , K x.X T         f q.,         K + x.x.x.x.x.x.x.x.x.x.x.",
"x.x.x.x.x.x.x.x.x.x.x.. T   K w.X             , , x.. T         + q.,         K + x.x.x.x.x.x.x.x.x.x.x.",
"x.x.x.x.x.x.x.x.x.x.x.. R   L w.              , , x.. T         + w.f     . X L + x.x.x.x.x.x.x.x.x.x.x.",
"x.x.x.x.x.x.x.x.x.x.x.k P P P P , > > > > > > f l x.  K > > > > f w.w.d , P P P 3 x.x.x.x.x.x.x.x.x.x.x.",
"x.x.x.x.x.x.x.x.x.x.x.x.        g f f f f f f x x.x.x.  f f f f f f f f g       x.x.x.x.x.x.x.x.x.x.x.x.",
"x.x.x.x.x.x.x.x.x.x.x.x.x.x.x.x.        x.x.x.x.x.x.x.x.x.x.. 0.          x.x.x.x.x.x.x.x.x.x.x.x.x.x.x.",
"x.x.x.x.x.x.x.x.x.x.x.&.*.*.t # s.h.h.  x.x.x.x.x.x.x.x.x.x.# z.h.h.h.h.d.# # D *.%.# x.x.x.x.x.x.x.x.x.",
"x.x.x.x.x.x.x.x.x.x.&.:.:.:.;.-.e z.z.  x.x.x.x.x.x.x.x.x.  a.z.z.z.z.z.> w -.;.:.:.-.#.x.x.x.x.x.x.x.x.",
"x.x.x.x.x.x.x.x.x.$.:.:.:.:.:.:.-.> h.h x.x.x.x.x.x.x.x.x.  t.h.h.h.h.y ;.:.:.:.:.:.:.:.S x.x.x.x.x.x.x.",
"x.x.x.x.x.x.x.x.x.$.:.:.:.:.:.:.;.r o S x.x.x.x.x.x.x.x.x.  S S S S o *.:.:.:.:.:.:.:.=.4 x.x.x.x.x.x.x.",
"x.x.x.x.x.x.x.x.x.4 S S S S S S S t x.S x.x.x.x.x.x.x.x.x.  S S S S x.t S S S S S S S 4 x.x.x.x.x.x.x.x."
};
