/* XPM */
static char *_0f93a31919d476de50054790c5cd3femKXUBEExF4QBK7AK[] = {
/* columns rows colors chars-per-pixel */
"64 64 188 2 ",
"   c #333549",
".  c #343D4E",
"X  c #393C4E",
"o  c #2D3D54",
"O  c #2E3D5D",
"+  c #353D53",
"@  c #393F54",
"#  c #333E5B",
"$  c #3C3F59",
"%  c #303E60",
"&  c #35424E",
"*  c #3B434D",
"=  c #2F4256",
"-  c #2E405B",
";  c #354354",
":  c #3B4455",
">  c #374956",
",  c #3C4955",
"<  c #35435B",
"1  c #3B455A",
"2  c #37485A",
"3  c #3C495B",
"4  c #344362",
"5  c #3B4562",
"6  c #374860",
"7  c #3C4A63",
"8  c #3B4568",
"9  c #3E4C6B",
"0  c #404556",
"q  c #424C57",
"w  c #494D55",
"e  c #41465B",
"r  c #434B5C",
"t  c #494E5C",
"y  c #445057",
"u  c #48505A",
"i  c #53525A",
"p  c #404460",
"a  c #434C62",
"s  c #494E61",
"d  c #434D6C",
"f  c #465163",
"g  c #4C5364",
"h  c #44526D",
"j  c #4C546B",
"k  c #4C586B",
"l  c #535466",
"z  c #545A66",
"x  c #515669",
"c  c #535B6C",
"v  c #5A5C6E",
"b  c #444F72",
"n  c #455372",
"m  c #495574",
"M  c #495973",
"N  c #47557A",
"B  c #4C567B",
"V  c #4C5A7C",
"C  c #505570",
"Z  c #555D73",
"A  c #5A5E72",
"S  c #545D7B",
"D  c #5B5F7A",
"F  c #56616E",
"G  c #5A616F",
"H  c #566172",
"J  c #5B6274",
"K  c #5E6A77",
"L  c #56627A",
"P  c #5D657C",
"I  c #5F6979",
"U  c #606069",
"Y  c #626475",
"T  c #636976",
"R  c #6B6A76",
"E  c #63667A",
"W  c #68677C",
"Q  c #656A7C",
"!  c #696A7D",
"~  c #66707F",
"^  c #6A707E",
"/  c #4F5D81",
"(  c #525F81",
")  c #5A5F81",
"_  c #546283",
"`  c #5E6583",
"'  c #5E6984",
"]  c #5A648C",
"[  c #5E6C8B",
"{  c #5C718C",
"}  c #5A6690",
"|  c #5E6C93",
" . c #626683",
".. c #686780",
"X. c #646A82",
"o. c #6A6D82",
"O. c #61678A",
"+. c #636C8B",
"@. c #6A6D8C",
"#. c #706F85",
"$. c #677084",
"%. c #6C7284",
"&. c #63738D",
"*. c #6C738B",
"=. c #717486",
"-. c #71758D",
";. c #757B8F",
":. c #787A8E",
">. c #646E92",
",. c #6B6E93",
"<. c #666D99",
"1. c #647293",
"2. c #6C7190",
"3. c #6C7491",
"4. c #6E7395",
"5. c #6D7594",
"6. c #6F7495",
"7. c #6F7893",
"8. c #6E7A94",
"9. c #66739A",
"0. c #66749B",
"q. c #6D759B",
"w. c #6C779D",
"e. c #6D7A9C",
"r. c #717495",
"t. c #767B91",
"y. c #737B94",
"u. c #737A97",
"i. c #777D97",
"p. c #797A97",
"a. c #7B7E94",
"s. c #73759B",
"d. c #72779E",
"f. c #767A98",
"g. c #747D99",
"h. c #757D9A",
"j. c #727B9C",
"k. c #737B9E",
"l. c #767E9E",
"z. c #797D99",
"x. c #797D9D",
"c. c #6777A0",
"v. c #6C76A2",
"b. c #6E7BA4",
"n. c #6F7CAB",
"m. c #7077A0",
"M. c #747BA2",
"N. c #777DA3",
"B. c #737DA4",
"V. c #777CA7",
"C. c #787FA3",
"Z. c #787EA6",
"A. c #787FA6",
"S. c #727DAA",
"D. c #737EAB",
"F. c #727FAC",
"G. c #787FAD",
"H. c #727DB1",
"J. c #797FB1",
"K. c #768196",
"L. c #7C8295",
"P. c #77819D",
"I. c #74829E",
"U. c #7A819E",
"Y. c #7D839C",
"T. c #6E80A2",
"R. c #7481A4",
"E. c #7C83A2",
"W. c #7A83A5",
"Q. c #7C82A5",
"!. c #7C8AA4",
"~. c #7380AA",
"^. c #7481AB",
"/. c #7781AB",
"(. c #7482AA",
"). c #7683AB",
"_. c #7A83AB",
"`. c #7B80AC",
"'. c #7B89AC",
"]. c #7683B1",
"[. c #7A83B2",
"{. c #7A88B2",
"}. c #7985B8",
"|. c #82869A",
" X c #83899B",
".X c #8285A5",
"XX c #838AA2",
"oX c #8285A8",
/* pixels */
"+.` ` X.&.r.h.i.K.K.*.T I T T T T Y r : : , : : : u H Q O.X.` 2.h.I.i.l.U.*.*.O.` ` X.*.I.h.l.V.g.! K Y T T T T z w * : , > > > ",
"E Q Q Q %.h.x.f.;.i.*.X. .X.Q $.^ Q z r u g u g r l T $.@.>.+.r.U.U.h.i.i.*.X.Q X.X.o.*.z.z.z.l.p.o.E ! E ! R R U i w w w u t q ",
"Q T K K T X.O.E Q X.E ` E Q Q T Q T Q I E o.I E E I E X.W.Z.B.B.W.w.O.` +.X.Q Q Q I I Q X.X.X.X.W ) E Q ! E R ! R Y T T E E K P ",
"Q Q Q T Q Q X.X.Q Q X.%.%.+.X.T T Q P P O.o.O.X.,.2.@.7.G.~.G.).N.w.1.<.1.[ ' ~ Q I Q Q Q X.Q X.X.@.@.@.+.X.X.Q E E ! Q X.X.X.*.",
"I I I E Q P P X.E O.3.l.W.u.%.O.E ~ P I X.' O.+.k.N.V.G.V.V.F.H.~.^.).~.R.0.' Q X.W Q  .P ` P  .O.V.R.N.j.O.O.X.' P  .` O.` >.M.",
">.+.>.*.1.+.+.*.O.] q.V.`./.q.+.O.+.&.+.+.+.1.1.M.].J.H.].^.).F.~.n.~.].].c.>.+.+.>.>.+.+.O.@.@.>.M./.~.B.>.[ [ +.+.+.>.,.@.w.`.",
"S.S.V.`.N.W.'.`.F.S.H.S.S.H././.G.W.!.W.Q.R.(.~.V.n.D.F.].'.].{.].~.).~.S.F.S.V.V.Z.G.G.'.oXC.[.M.D.F.B.~./.R.R.!.R.!.N.V.V.M.M.",
"J.J.J.G.M.<.>.O.v.].[.}.n.].v.} 9.1.{ [ I.I./.T.F.).[.F.| | 1.| | b.{.].).[.].].J.[.V.v.<.v.} V.S.`.G.G.R.1.+.&.&.[ u.G.V.'.G.).",
"G.G.G.{.q.5 + < _ ).b.)./.{.[ O 6 < 6 4 T.!.R.R.R.R.'.b.% < 4 4 - ] T.).V.).`.).{.[.M.] 8 8 8 q.'.'.~.`.b.5 # < ; o a '.`.`._.W.",
">.>.>.>.L ; ; 2 M 1.{ [ [ 1.M - = = 4 4 _ { ' 1.{ { { ' < < 5 < 4 V [ 1.>.<.>.+.>.+.+.S < < # P +.&.[ 5.+.5 < < 2 ; 7 1.>.@.&.1.",
"# # # + + > q & > = ; ; > = = 2 ; > 2 9 = = 2 = ; = 2 2 ; < 1 2 < 1 < + < < < < # < < < < 7 1 , o < # # + 7 @ ; 1 ; ; < < < < < ",
": 1 1 3 , : : : > 2 2 2 > 3 > > > > 3 ; 2 > 2 2 > 2 3 2 > : 1 , 1 3 3 1 1 1 1 3 3 3 , < 1 3 , 1 3 3 3 7 3 1 1 < 2 1 3 3 2 ; < ; ",
"1 @ : : : : : ; : , : ; 2 2 , 2 1 : ; ; ; . ; > ; ; > ; : ; ; : , , , 1 > : ; e 3 ; : : ; < : < : 3 e 5 e e 1 1 e ; ; + : ; > ; ",
": 0 r l c c c c j : ; : : , e , : : : , H ~ H c c c c c ; : 0 : 1 1 : , , : : 0 : s v c c v v t + e e e e e e : 1 : r o.K v F k ",
"@ : g Q Q $.Q o.c : @ 0 : 0 : : : : : : =. X=.o.Q Q Q Q X ; : ; ; , ; e 1 : 0 : @ A ..! ! ! T t X 0 : e $ @ , @ @ : s  Xt.o.%.Q ",
"J J J E Q Q Q ! Y v v v J v H v v c v G %.%.E ! Q E Q I A c z J ! v e e , g v v U Y R Y T T W v l v v v v v v A v l Y %.%.T Q T ",
"! ! Q W Q E Q Q W ! ! ! ! ! ! ! ! W E ! W Y ! E E E E E Q o.Q *. X%.: ; ; k ! ! R W R T Y E W Y W ! ! ! ! ! ! W ! ! ! E W ! Q W ",
"o.! Q W Q Q E T E E Q E W ! ! Q ! Q Q Q W Q W E E E Y Y Q Q T Q %.! v A v Y ! ! W W Y W W R Y Y W W R W R W W T W W E Y E W E Q ",
"! Q W Q Q W ! W E E Q Q Q Q Q o.Q Q Q Q Q E J Q Q ! ! Q Q o.E E Q Q o.! o.! T Q W Q ! E ! ! W W T Q ! W T E T Q R T W Q Q E ! Q ",
"E ! W Q =.a.W r r s c I Q Q Q Q Q Q Q Q Q E x t t a t u r s s v Q Y Q T Q Q Q o.W ! ..-.:.v e s l Y R T T Q R T T Q T ! J s t r ",
"W W W Y ! |.=.0 + : l E Q Q Q Y Q Q Q T %.I r : + + ; ; : : @ g E ! T Q Q Q Q T E X.o.;.L.Z + : 1 v Q T T Q K T T T Q Q v ; : X ",
"Y e e 0 t e v a.-.E E E R T %.|.J r , q , e : 3 y.f.r.i.h.@.1 1 a e r c Q ~ K F , e a , a *.a.` P Q X.I %.K.-.a , y * y , ; Z U.",
"D e e @ + + l Y.u.X.Q T J T %.a.Z @ , : ; : 1 a 3.l.N.W.U.%.7 : ; : > g K K K c > : : + 1 %.Y.@.X.Q X.` &.i.-.t * q , * * ; L l.",
"r 1 1 1 a e e x a 7 a u , u a j a 5 3 e 1 < 3 # j h h h f f : : , , 2 , f u f t : e e e p s h p a a a r a j a 1 , r : , , ; p d ",
"e 1 5 3 2 1 < ; ; ; : ; ; 2 1 # d 8 d $ e 1 # 5 $ + # < ; ; ; , 3 r 3 1 1 2 ; < 3 e 3 3 1 % 5 1 1 : : < $ 5 5 a p 3 5 : 5 3 5 # ",
"# 5 # 1 < < < 7 1 2 1 2 7 < 4 4 >.M.m O 5 # 5 1 5 5 1 3 > ; , ; ; < < < < 5 1 < # < O $ $ p 7 p 1 : 1 1 < # n j.>.7 # < < < 5 3 ",
"9 h h n 9 h h < > ; 3 < 9 h 9 N >.{./ b d b d h 5 1 < a ; 3 < 3 h 9 9 7 9 9 d d h h d 9 m 7 5 8 1 1 1 h d d V `.k.m 8 d m d e 5 ",
"I.e.e.B.I.R.{ - = - 4 4 V ~.S.b.S.Z.G.m.M.M.k.u.d # 1 + < < - M I.I.I.R.B.B.M.M.B.j.B.I.q.M O # # o 7 5./.M.R.R.N.B.k.N.k.N.O.# ",
"'.R.R.B.R.'.0.9 9 h 9 n } S.).F.B.B.`.W.V.`.W.Z.m d h d m b 9 / ~.T.~.^./.).R.~.N.B./.'.R._ 9 m n d m e./.w.~.b.W.'.`.S.M.G.3.d ",
"N.R.N.R.R./.`.B.R.W./.V.]./.V.V.W.'.Z.`._.W._.Q.M.V.W.R./.~.^.n.).^.^.).~.~.~.'.].~././.R.R.R.R.R.S.~.).].S.^._.R.R.R.`.G.G.Q.I.",
"b.V.V.M.M.b.w.N.q.w.M./.).[.V.q.q.q.k.M.e.w.q.q.4.B.B.V.H.H.}.H.].^.n.c.0.0.0.v.N.n.b.c.w.R.I.w.e.~.R.S./.b.B.e.e.8.M.b.m.q.e.k.",
"a ` +.O.O.X. .X.O.X.q.`.Z.G.q.@.+.X.X.X.X.X.+.` ` 5.I.R.[.}.}.).{.| 9 4 4 4 8 B 1.1.O.X.' ' [ I &.T.).e.e.1.+.&.X.X.Q O.O.O.` O.",
"r c Z Z J Q E Q P I X.>.q.`.' ( D P Y o.Q o.*.*.L L { 1.9.<.<.s.9._ 5 < 7 < 1 m D Z Z P Q X.Q I L { { R.I.L K J J Q Q Q Q $.X.P ",
": 1 e @ f I o.o.c ; # 4 _ oX_ 1 # + E ! o.o.t.K.f = 7 < 4 4 < % 4 7 < 5 < 2 1 1 5 $ 5 Z X.X.Q g ; O 6 7.h.3 ; ; g T Q Q -.Y.%.+ ",
"e e 0 1 a J P J j 1 3 < Z *.k 2 : : x D D A @.$.f < 7 < 1 1 < : < < 1 e 5 3 5 1 p 1 p x Z J H t ; - 7 { ` 7 : : t v v Z J @.` ; ",
": @ 1 : 1 e 1 1 ; 1 < ; < 1 ; > 2 , @ : : : 1 ; ; ; < < @ @ : : : @ 1 e $ @ < $ 1 $ 3 1 3 : 1 < 2 < < 2 ; ; 1 : * 0 ; : + @ 1 < ",
"D 0 e e e 1 $ p 2 < 2 2 3 > , , , , 0 q 0 : : : 7 3 1 1 : t x c l k Z x s c Q k 1 e 5 3 3 1 : 1 3 3 1 1 1 1 : e 0 : 1 e 0 1 : : ",
"u.0 X : @ $ % $ < 1 < : & & & & ; : : : : : : 1 2 ; < < @ t J ! Q E Q Q W r.|.P + + , 3 $ : $ < < ; ; ; : ; ; : 0 @ 0 : : 1 : : ",
"*.c g c Z  .O.) `  .D c c z z c z c u : ; 0 : r : a Z D m D X.@.-.-.*.*.-.-.y.I c j j H P ` P ` P v j c z v k c g : : : : : 1 : ",
"T Q ^ E *.Y..XR..XXXu.o.%.^ ^ ! ~ o.y & * : ; : ; a J Q >.O.O.,.x.W.Y.Y.E.7.X.Y $.%.o.u.XXY.XXW.Y.=.R Q o.! %.Q J e : * * : ; : ",
"X.Q E E X.*.4.<.s.,.@...E Y E Q T I F F z k z F F H I Q w.q.q.v.G.q.*.*.*.&.Q I I I I %.*.*.5.2.%.Q Y Y Y I E I J z v c F F k H ",
"O.Q .. .X. .X.O. .X.! ..) ......! E Q Q K ~ $.' X.&.` +.].[.J.S.V.e.[ ] ' ' Q I X.o.Q O.E  .X.E  .W W ! o.X.o.Q o.Q o.T T Q X.X.",
"X.X.X... .Q .. .Q X.@.5.s.s.,...o.! Q o.` P X.[ 8.e.0.c.H.H.H.H.n.^.b.q.e.1.O. . .X.X.X.o.X.Q Q  .,.s.s.3. . .W W I E Q Q Q %.l.",
"` X.'  . .O.X.W Q X.r.`.oXG.s... .I P  .` ' X.&.T.'.).(.H.H.H.H.^.^.).).).7.O.O. .`  .O.X.P ` T O.M.`.Q.x.+.X.X.X.E E X. . .5.W.",
"s.q.j.q.r.7.j.u.7.5.j.V.V.`.M.5.I.8.7.T.7.q.w.w.T.(.~.~.n.~.n.~.n.n.~.b.~.c.b.j.j.j.l.j.5.u.u.*.r.C.B.N.W.j.5.5.7.7.7.g.s.k.k.R.",
")./.N.R.W.B.l.R.I.!._.^./.].V.b.I.I.I.T.R.'.R.~.~.(.~.~.(.(.(.(.^.^.^.^.).].~.V.V.B.R.R.I.V.R.R.G.`.S.G.).w.R.R.R.I.R./.`./.S.B.",
"/.~.).R.w._ V V [ ~.R.~.].~.| / V n / / 1.T.T.T.T.(.(.T.N V V V V | b.).^.^.^.^./.R.R.1.V V _ 1.R.~././.w._ N V V V V ^./.^.~./.",
"~.R.R.'.1.4 O 4 L /.R.~.B.~._ O 4 4 4 4 1.!.R.R.T.R.(.w.- - - 4 % _ ~.S.n.).^.T.R.).e._ 4 4 5 &.R.R.R.R.w.9 O - # < 9 ).^.(.~./.",
"n h h m d < 7 4 9 m n n m n 9 - 5 < 6 4 n 9 9 h h n n d < 2 7 2 6 6 m n n N n n n n n 7 7 7 2 h h h h h h < 3 7 7 < 9 n n n d n ",
"< < < < 2 1 2 2 7 < < 3 ; < < < 7 7 2 < 6 2 3 1 ; + : 1 ; > ; < < ; < = < 6 < 5 < < 2 1 3 1 2 ; > > ; ; 1 > 3 < 2 2 2 1 < < < < ",
"1 1 > : : > > 2 ; 1 3 , r , 2 , 1 2 1 1 > 2 > , : 0 : , , > > , > > > > 2 > > , 1 : > , ; ; , , y , , > * , , , ; > ; > > 1 : 1 ",
", 1 2 > , , , , 3 , : ; , : > r : > : 1 , 3 q : 0 0 * : > > ; ; 2 > > , > > : 1 , ; : , ; : , & , * , , , , , : ; q * , , , , , ",
"< : f T I I K K c : ; : : : : : : : @ e o.p.Q E E Q T J ; 1 3 < ; 1 , : , : ; : : k Q T K I K g & * ; ; : : : : > X g a.-.o.X.T ",
"a 5 k P X.I Q Q Z r e r e r e t r e e e *.|.o...Q Q o.E 3 a a p f f : 2 : : t r a H Q Q Q Q E g , r r e r r r e t 1 g I.r.o.P I ",
"o.Q P T Q T I Q T P E Q Y T I E P J W E o.o.E ..W W  .E X.O.E X.z.E : ; : s X.T T E Q Q E E W W E Y I E Y Y E K E K ..o.Q Q Q Q ",
"X.o.X.Q Q Q Q Q E E Q W E E Q Q W W W W W E #...! W W ..o.X...o.a...t t r z ..E ! Q T Q E E E W ! Q Q ! Q W Q ! W W ! W E E E E ",
" .E ..! X.W E ! ! ! W W W W W W W W E W ! Y W .......... ..... .X.W I ! Q E ! E #.W Y W Y W W W W ! ..! ! W ! ! W ..W T W W R ! ",
"Q Q Q ..W o.o.Z W Y Y #.W W W ! %.! R E W W Y Z W ..D D W ..E I W  .W T Q ! W W E W W #.#.W Y Y U W o.Y ! ! W W W ! W E T v K Y ",
"Q Q X.Q *.|.@.X X 0 l E E ! W W ! Y ^ T %.! t e $ @ $ $ + $ $ x o.@.Q Q ! Q Y ! o.! ! :.|.l   e e D o.! W W E o.! E o.Q J e ; @ ",
"E A A A I @. .Z l s Z ! Q Q ! ! Y G F F J G 0 1 C x C S C j : 5 J J A J ~ Q Y J z v J W ! Y v l l Y Q Q ! o.Q K A A z I k : e A ",
"T a : < $ + S XXL.$.Q ! o.Q t.Y.Z X : , , , , e N.XXQ.XX Xg.a : 3 ; : f I ~ ~ c : 0 : @ ; -.XXo.o.o.o.Q %.L.;.e + e : 1 ; ; L !.",
"k 3 : 1 3 1 j %.K H J c G F I =.k : , * : 1 , , @.X.+.&.&.X.; 1 a : ; f H J F g : ; : : , T %.D A c H H A %.I r : e , 3 3 2 k &.",
"; : : : 1 0 : + ; : X ; X : & + + $ : , : , : ; . . + . + ; 3 1 ; : 1 : : : > , 1 0 0 0 0 ; @ @ 1 $ @ $ 1 + + ; 2 3 1 < < < 1 + ",
", , e e 0 : < 1 < : , , ; 0 1 5 S O.f < , > 1 2 2 1 ; ; 3 1 1 1 3 1 5 1 1 3 1 1 e 1 3 : 1 1 1 1 e $ e p p 5 a ` L 7 1 5 3 1 1 3 "
};
